<svg width="346" height="346" viewBox="0 0 346 346" fill="none" xmlns="http://www.w3.org/2000/svg">
<path d="M150.667 1.46667C137.867 3.20001 123.067 6.40002 116.933 8.93335C83.2 22.6667 62 36.9333 43.2 58.6667C14.6667 91.7334 0.933323 128 0.399989 171.6C-0.133344 219.2 17.6 262 52 296C78.4 322.133 113.067 339.467 148 344.267C163.333 346.267 196.4 345.333 206 342.667C207.067 342.4 209.467 341.867 211.333 341.467C213.2 341.067 219.467 339.333 225.333 337.6C276.4 322.133 321.867 276.667 337.6 225.333C341.2 213.333 341.333 212.8 343.6 200.667C346.133 186.533 345.733 153.2 342.8 140C336.667 112.4 331.333 99.4667 316.933 77.4667C281.333 23.0667 215.467 -7.06665 150.667 1.46667ZM216.533 73.2C222 78.9333 222.8 76.1334 191.333 157.333C187.067 168.267 175.733 198 166 223.333C155.333 251.2 147.2 270.533 145.333 272.533C139.067 278.933 127.333 274.4 127.333 265.467C127.333 261.867 137.067 235.733 165.333 162.667C168.4 154.533 177.2 131.867 184.8 112.267C192.267 92.5334 199.6 74.9333 200.933 73.2C204.533 68.8 212.4 68.8 216.533 73.2ZM121.333 122.667C124.8 126 125.6 131.067 123.333 135.2C122.667 136.533 110.133 145.333 95.4667 154.8C73.8667 168.8 69.0667 172.267 70.5333 173.733C71.4667 174.667 78.5333 179.733 86.1333 185.067C123.067 210.4 122 209.467 122 215.867C122 222.267 118.133 226.533 112.4 226.533C108.667 226.533 102 222.4 75.0667 203.6C56.9333 190.933 41.2 179.333 40.1333 177.733C37.2 173.6 37.4667 169.333 41.0667 165.467C42.6667 163.6 58.9333 152.533 77.2 140.8C112.933 117.733 115.467 116.667 121.333 122.667ZM266 141.467C284.667 153.6 300.8 164.533 301.733 165.733C304.133 168.8 303.733 175.867 301.067 179.067C298.133 182.267 240.4 222.8 234.533 225.6C230.933 227.333 229.867 227.333 226.533 225.867C221.6 223.467 218.667 218.133 219.733 213.733C220.8 209.733 226.4 205.067 253.2 186.667C263.867 179.333 272.667 172.933 272.667 172.533C272.667 172.133 263.067 165.467 251.2 157.867C218.933 137.067 218.8 136.933 218.267 130.4C217.867 125.867 218.4 124.533 221.467 122.133C223.467 120.667 226.533 119.333 228.533 119.333C230.8 119.333 244.267 127.333 266 141.467Z" fill="white"/>
</svg>
